<?xml version="1.0" encoding="UTF-8" standalone="no"?>
<!-- Created with Inkscape (http://www.inkscape.org/) -->

<svg
   xmlns:dc="http://purl.org/dc/elements/1.1/"
   xmlns:cc="http://creativecommons.org/ns#"
   xmlns:rdf="http://www.w3.org/1999/02/22-rdf-syntax-ns#"
   xmlns:svg="http://www.w3.org/2000/svg"
   xmlns="http://www.w3.org/2000/svg"
   xmlns:sodipodi="http://sodipodi.sourceforge.net/DTD/sodipodi-0.dtd"
   xmlns:inkscape="http://www.inkscape.org/namespaces/inkscape"
   width="511.90921"
   height="193.86931"
   id="svg4250"
   version="1.1"
   inkscape:version="0.48.3.1 r9886"
   sodipodi:docname="ejemploEj2_b2.pdf">
  <defs
     id="defs4252" />
  <sodipodi:namedview
     id="base"
     pagecolor="#ffffff"
     bordercolor="#666666"
     borderopacity="1.0"
     inkscape:pageopacity="0.0"
     inkscape:pageshadow="2"
     inkscape:zoom="0.98994949"
     inkscape:cx="309.1453"
     inkscape:cy="62.13418"
     inkscape:document-units="px"
     inkscape:current-layer="layer1"
     showgrid="false"
     inkscape:window-width="1024"
     inkscape:window-height="576"
     inkscape:window-x="0"
     inkscape:window-y="24"
     inkscape:window-maximized="1"
     fit-margin-top="0"
     fit-margin-left="0"
     fit-margin-right="0"
     fit-margin-bottom="0" />
  <metadata
     id="metadata4255">
    <rdf:RDF>
      <cc:Work
         rdf:about="">
        <dc:format>image/svg+xml</dc:format>
        <dc:type
           rdf:resource="http://purl.org/dc/dcmitype/StillImage" />
        <dc:title></dc:title>
      </cc:Work>
    </rdf:RDF>
  </metadata>
  <g
     inkscape:label="Layer 1"
     inkscape:groupmode="layer"
     id="layer1"
     transform="translate(-85.785864,-338.02609)">
    <path
       sodipodi:type="arc"
       style="fill:#ff0000;fill-opacity:0;fill-rule:evenodd;stroke:#000000;stroke-width:1px;stroke-linecap:butt;stroke-linejoin:miter;stroke-opacity:1"
       id="path2985"
       sodipodi:cx="92.85714"
       sodipodi:cy="221.6479"
       sodipodi:rx="15.714286"
       sodipodi:ry="15"
       d="m 108.57143,221.6479 c 0,8.28427 -7.03553,15 -15.71429,15 -8.678761,0 -15.714286,-6.71573 -15.714286,-15 0,-8.28427 7.035525,-15 15.714286,-15 8.67876,0 15.71429,6.71573 15.71429,15 z"
       transform="translate(71.64758,132.39535)" />
    <flowRoot
       xml:space="preserve"
       id="flowRoot3755"
       style="font-size:40px;font-style:normal;font-weight:normal;line-height:125%;letter-spacing:0px;word-spacing:0px;fill:#000000;fill-opacity:1;stroke:none;font-family:Sans"
       transform="matrix(0.68002367,0,0,0.74018849,118.03951,192.48453)"><flowRegion
         id="flowRegion3757"><rect
           id="rect3759"
           width="89.90358"
           height="78.286819"
           x="66.670067"
           y="209.38988" /></flowRegion><flowPara
         id="flowPara3761">1</flowPara></flowRoot>    <path
       sodipodi:type="arc"
       style="fill:#ff0000;fill-opacity:0;fill-rule:evenodd;stroke:#000000;stroke-width:1px;stroke-linecap:butt;stroke-linejoin:miter;stroke-opacity:1"
       id="path2985-6"
       sodipodi:cx="92.85714"
       sodipodi:cy="221.6479"
       sodipodi:rx="15.714286"
       sodipodi:ry="15"
       d="m 108.57143,221.6479 c 0,8.28427 -7.03553,15 -15.71429,15 -8.678761,0 -15.714286,-6.71573 -15.714286,-15 0,-8.28427 7.035525,-15 15.714286,-15 8.67876,0 15.71429,6.71573 15.71429,15 z"
       transform="translate(143.14325,196.89841)" />
    <flowRoot
       xml:space="preserve"
       id="flowRoot3755-6"
       style="font-size:40px;font-style:normal;font-weight:normal;line-height:125%;letter-spacing:0px;word-spacing:0px;fill:#000000;fill-opacity:1;stroke:none;font-family:Sans"
       transform="matrix(0.68002367,0,0,0.74018849,187.53519,256.98759)"><flowRegion
         id="flowRegion3757-4"><rect
           id="rect3759-0"
           width="89.90358"
           height="78.286819"
           x="66.670067"
           y="209.38988" /></flowRegion><flowPara
         id="flowPara3761-1">4</flowPara></flowRoot>    <path
       sodipodi:type="arc"
       style="fill:#ff0000;fill-opacity:0;fill-rule:evenodd;stroke:#000000;stroke-width:1px;stroke-linecap:butt;stroke-linejoin:miter;stroke-opacity:1"
       id="path2985-6-2"
       sodipodi:cx="92.85714"
       sodipodi:cy="221.6479"
       sodipodi:rx="15.714286"
       sodipodi:ry="15"
       d="m 108.57143,221.6479 c 0,8.28427 -7.03553,15 -15.71429,15 -8.678761,0 -15.714286,-6.71573 -15.714286,-15 0,-8.28427 7.035525,-15 15.714286,-15 8.67876,0 15.71429,6.71573 15.71429,15 z"
       transform="translate(9.14325,196.89873)" />
    <flowRoot
       xml:space="preserve"
       id="flowRoot3755-6-1"
       style="font-size:40px;font-style:normal;font-weight:normal;line-height:125%;letter-spacing:0px;word-spacing:0px;fill:#000000;fill-opacity:1;stroke:none;font-family:Sans"
       transform="matrix(0.68002367,0,0,0.74018849,49.29407,254.2011)"><flowRegion
         id="flowRegion3757-4-6"><rect
           id="rect3759-0-0"
           width="89.90358"
           height="78.286819"
           x="66.670067"
           y="209.38988" /></flowRegion><flowPara
         id="flowPara3761-1-6">2</flowPara></flowRoot>    <path
       sodipodi:type="arc"
       style="fill:#ff0000;fill-opacity:0;fill-rule:evenodd;stroke:#000000;stroke-width:1px;stroke-linecap:butt;stroke-linejoin:miter;stroke-opacity:1"
       id="path2985-6-2-1"
       sodipodi:cx="92.85714"
       sodipodi:cy="221.6479"
       sodipodi:rx="15.714286"
       sodipodi:ry="15"
       d="m 108.57143,221.6479 c 0,8.28427 -7.03553,15 -15.71429,15 -8.678761,0 -15.714286,-6.71573 -15.714286,-15 0,-8.28427 7.035525,-15 15.714286,-15 8.67876,0 15.71429,6.71573 15.71429,15 z"
       transform="translate(9.14301,282.89872)" />
    <flowRoot
       xml:space="preserve"
       id="flowRoot3755-6-1-9"
       style="font-size:40px;font-style:normal;font-weight:normal;line-height:125%;letter-spacing:0px;word-spacing:0px;fill:#000000;fill-opacity:1;stroke:none;font-family:Sans"
       transform="matrix(0.68002367,0,0,0.74018849,49.53494,342.9879)"><flowRegion
         id="flowRegion3757-4-6-7"><rect
           id="rect3759-0-0-3"
           width="89.90358"
           height="78.286819"
           x="66.670067"
           y="209.38988" /></flowRegion><flowPara
         id="flowPara3761-1-6-2">3</flowPara></flowRoot>    <path
       sodipodi:type="arc"
       style="fill:#ff0000;fill-opacity:0;fill-rule:evenodd;stroke:#000000;stroke-width:1px;stroke-linecap:butt;stroke-linejoin:miter;stroke-opacity:1"
       id="path2985-6-2-1-2"
       sodipodi:cx="92.85714"
       sodipodi:cy="221.6479"
       sodipodi:rx="15.714286"
       sodipodi:ry="15"
       d="m 108.57143,221.6479 c 0,8.28427 -7.03553,15 -15.71429,15 -8.678761,0 -15.714286,-6.71573 -15.714286,-15 0,-8.28427 7.035525,-15 15.714286,-15 8.67876,0 15.71429,6.71573 15.71429,15 z"
       transform="translate(143.14301,288.89872)" />
    <flowRoot
       xml:space="preserve"
       id="flowRoot3755-6-1-9-1"
       style="font-size:40px;font-style:normal;font-weight:normal;line-height:125%;letter-spacing:0px;word-spacing:0px;fill:#000000;fill-opacity:1;stroke:none;font-family:Sans"
       transform="matrix(0.68002367,0,0,0.74018849,187.53495,346.9879)"><flowRegion
         id="flowRegion3757-4-6-7-5"><rect
           id="rect3759-0-0-3-6"
           width="89.90358"
           height="78.286819"
           x="66.670067"
           y="209.38988" /></flowRegion><flowPara
         id="flowPara3761-1-6-2-9">5</flowPara></flowRoot>    <path
       style="fill:none;stroke:#000000;stroke-width:1px;stroke-linecap:butt;stroke-linejoin:miter;stroke-opacity:1"
       d="m 112.60444,405.37913 c 40.4061,-41.41625 40.4061,-41.41625 40.4061,-41.41625"
       id="path3945"
       inkscape:connector-curvature="0" />
    <path
       style="fill:none;stroke:#000000;stroke-width:1px;stroke-linecap:butt;stroke-linejoin:miter;stroke-opacity:1"
       d="m 218.67046,421.54157 c -104.04572,-2.0203 -104.04572,-2.0203 -104.04572,-2.0203"
       id="path3947"
       inkscape:connector-curvature="0" />
    <path
       style="fill:none;stroke:#000000;stroke-width:1px;stroke-linecap:butt;stroke-linejoin:miter;stroke-opacity:1"
       d="m 101.49276,433.66341 c 0,54.54823 0,54.54823 0,54.54823"
       id="path3949"
       inkscape:connector-curvature="0" />
    <path
       style="fill:none;stroke:#000000;stroke-width:1px;stroke-linecap:butt;stroke-linejoin:miter;stroke-opacity:1"
       d="m 220.69077,510.435 c -103.03557,0 -103.03557,0 -103.03557,0"
       id="path3955"
       inkscape:connector-curvature="0" />
    <flowRoot
       xml:space="preserve"
       id="flowRoot3755-3"
       style="font-size:40px;font-style:normal;font-weight:normal;line-height:125%;letter-spacing:0px;word-spacing:0px;fill:#000000;fill-opacity:1;stroke:none;font-family:Sans"
       transform="matrix(0.68002367,0,0,0.74018849,79.03427,211.41892)"><flowRegion
         id="flowRegion3757-8"><rect
           id="rect3759-1"
           width="89.90358"
           height="78.286819"
           x="66.670067"
           y="209.38988" /></flowRegion><flowPara
         id="flowPara3761-2">0</flowPara></flowRoot>    <flowRoot
       xml:space="preserve"
       id="flowRoot3755-3-3-8"
       style="font-size:40px;font-style:normal;font-weight:normal;line-height:125%;letter-spacing:0px;word-spacing:0px;fill:#000000;fill-opacity:1;stroke:none;font-family:Sans"
       transform="matrix(0.68002367,0,0,0.74018849,42.06167,296.71664)"><flowRegion
         id="flowRegion3757-8-4-0"><rect
           id="rect3759-1-1-4"
           width="89.90358"
           height="78.286819"
           x="66.670067"
           y="209.38988" /></flowRegion><flowPara
         id="flowPara3761-2-6-3">0</flowPara></flowRoot>    <flowRoot
       xml:space="preserve"
       id="flowRoot3755-5"
       style="font-size:40px;font-style:normal;font-weight:normal;line-height:125%;letter-spacing:0px;word-spacing:0px;fill:#000000;fill-opacity:1;stroke:none;font-family:Sans"
       transform="matrix(0.68002367,0,0,0.74018849,127.51904,336.34785)"><flowRegion
         id="flowRegion3757-5"><rect
           id="rect3759-00"
           width="89.90358"
           height="78.286819"
           x="66.670067"
           y="209.38988" /></flowRegion><flowPara
         id="flowPara3761-0">1</flowPara></flowRoot>    <path
       sodipodi:type="arc"
       style="fill:#ff0000;fill-opacity:0;fill-rule:evenodd;stroke:#000000;stroke-width:1px;stroke-linecap:butt;stroke-linejoin:miter;stroke-opacity:1"
       id="path2985-9"
       sodipodi:cx="92.85714"
       sodipodi:cy="221.6479"
       sodipodi:rx="15.714286"
       sodipodi:ry="15"
       d="m 108.57143,221.6479 c 0,8.28427 -7.03553,15 -15.71429,15 -8.678761,0 -15.714286,-6.71573 -15.714286,-15 0,-8.28427 7.035525,-15 15.714286,-15 8.67876,0 15.71429,6.71573 15.71429,15 z"
       transform="translate(411.69994,131.87819)" />
    <flowRoot
       xml:space="preserve"
       id="flowRoot3755-9"
       style="font-size:40px;font-style:normal;font-weight:normal;line-height:125%;letter-spacing:0px;word-spacing:0px;fill:#000000;fill-opacity:1;stroke:none;font-family:Sans"
       transform="matrix(0.68002367,0,0,0.74018849,458.09187,191.96737)"><flowRegion
         id="flowRegion3757-7"><rect
           id="rect3759-9"
           width="89.90358"
           height="78.286819"
           x="66.670067"
           y="209.38988" /></flowRegion><flowPara
         id="flowPara3761-11">1</flowPara></flowRoot>    <path
       sodipodi:type="arc"
       style="fill:#ff0000;fill-opacity:0;fill-rule:evenodd;stroke:#000000;stroke-width:1px;stroke-linecap:butt;stroke-linejoin:miter;stroke-opacity:1"
       id="path2985-6-7"
       sodipodi:cx="92.85714"
       sodipodi:cy="221.6479"
       sodipodi:rx="15.714286"
       sodipodi:ry="15"
       d="m 108.57143,221.6479 c 0,8.28427 -7.03553,15 -15.71429,15 -8.678761,0 -15.714286,-6.71573 -15.714286,-15 0,-8.28427 7.035525,-15 15.714286,-15 8.67876,0 15.71429,6.71573 15.71429,15 z"
       transform="translate(483.19561,196.38125)" />
    <flowRoot
       xml:space="preserve"
       id="flowRoot3755-6-2"
       style="font-size:40px;font-style:normal;font-weight:normal;line-height:125%;letter-spacing:0px;word-spacing:0px;fill:#000000;fill-opacity:1;stroke:none;font-family:Sans"
       transform="matrix(0.68002367,0,0,0.74018849,527.58755,256.47042)"><flowRegion
         id="flowRegion3757-4-9"><rect
           id="rect3759-0-2"
           width="89.90358"
           height="78.286819"
           x="66.670067"
           y="209.38988" /></flowRegion><flowPara
         id="flowPara3761-1-4">4</flowPara></flowRoot>    <path
       sodipodi:type="arc"
       style="fill:#ff0000;fill-opacity:0;fill-rule:evenodd;stroke:#000000;stroke-width:1px;stroke-linecap:butt;stroke-linejoin:miter;stroke-opacity:1"
       id="path2985-6-2-0"
       sodipodi:cx="92.85714"
       sodipodi:cy="221.6479"
       sodipodi:rx="15.714286"
       sodipodi:ry="15"
       d="m 108.57143,221.6479 c 0,8.28427 -7.03553,15 -15.71429,15 -8.678761,0 -15.714286,-6.71573 -15.714286,-15 0,-8.28427 7.035525,-15 15.714286,-15 8.67876,0 15.71429,6.71573 15.71429,15 z"
       transform="translate(349.19561,196.38157)" />
    <flowRoot
       xml:space="preserve"
       id="flowRoot3755-6-1-3"
       style="font-size:40px;font-style:normal;font-weight:normal;line-height:125%;letter-spacing:0px;word-spacing:0px;fill:#000000;fill-opacity:1;stroke:none;font-family:Sans"
       transform="matrix(0.68002367,0,0,0.74018849,395.34643,255.68393)"><flowRegion
         id="flowRegion3757-4-6-4"><rect
           id="rect3759-0-0-0"
           width="89.90358"
           height="78.286819"
           x="66.670067"
           y="209.38988" /></flowRegion><flowPara
         id="flowPara3761-1-6-6">2</flowPara></flowRoot>    <path
       sodipodi:type="arc"
       style="fill:#ff0000;fill-opacity:0;fill-rule:evenodd;stroke:#000000;stroke-width:1px;stroke-linecap:butt;stroke-linejoin:miter;stroke-opacity:1"
       id="path2985-6-2-1-8"
       sodipodi:cx="92.85714"
       sodipodi:cy="221.6479"
       sodipodi:rx="15.714286"
       sodipodi:ry="15"
       d="m 108.57143,221.6479 c 0,8.28427 -7.03553,15 -15.71429,15 -8.678761,0 -15.714286,-6.71573 -15.714286,-15 0,-8.28427 7.035525,-15 15.714286,-15 8.67876,0 15.71429,6.71573 15.71429,15 z"
       transform="translate(349.19537,282.38155)" />
    <flowRoot
       xml:space="preserve"
       id="flowRoot3755-6-1-9-7"
       style="font-size:40px;font-style:normal;font-weight:normal;line-height:125%;letter-spacing:0px;word-spacing:0px;fill:#000000;fill-opacity:1;stroke:none;font-family:Sans"
       transform="matrix(0.68002367,0,0,0.74018849,389.5873,342.47073)"><flowRegion
         id="flowRegion3757-4-6-7-7"><rect
           id="rect3759-0-0-3-63"
           width="89.90358"
           height="78.286819"
           x="66.670067"
           y="209.38988" /></flowRegion><flowPara
         id="flowPara3761-1-6-2-5">3</flowPara></flowRoot>    <path
       sodipodi:type="arc"
       style="fill:#ff0000;fill-opacity:0;fill-rule:evenodd;stroke:#000000;stroke-width:1px;stroke-linecap:butt;stroke-linejoin:miter;stroke-opacity:1"
       id="path2985-6-2-1-2-9"
       sodipodi:cx="92.85714"
       sodipodi:cy="221.6479"
       sodipodi:rx="15.714286"
       sodipodi:ry="15"
       d="m 108.57143,221.6479 c 0,8.28427 -7.03553,15 -15.71429,15 -8.678761,0 -15.714286,-6.71573 -15.714286,-15 0,-8.28427 7.035525,-15 15.714286,-15 8.67876,0 15.71429,6.71573 15.71429,15 z"
       transform="translate(483.19537,288.38155)" />
    <flowRoot
       xml:space="preserve"
       id="flowRoot3755-6-1-9-1-7"
       style="font-size:40px;font-style:normal;font-weight:normal;line-height:125%;letter-spacing:0px;word-spacing:0px;fill:#000000;fill-opacity:1;stroke:none;font-family:Sans"
       transform="matrix(0.68002367,0,0,0.74018849,527.58731,346.47073)"><flowRegion
         id="flowRegion3757-4-6-7-5-4"><rect
           id="rect3759-0-0-3-6-9"
           width="89.90358"
           height="78.286819"
           x="66.670067"
           y="209.38988" /></flowRegion><flowPara
         id="flowPara3761-1-6-2-9-9">5</flowPara></flowRoot>    <path
       style="fill:none;stroke:#000000;stroke-width:1px;stroke-linecap:butt;stroke-linejoin:miter;stroke-opacity:1"
       d="M 566.80405,406.88227 C 518.31671,359.4051 518.31671,359.4051 518.31671,359.4051"
       id="path3943-9"
       inkscape:connector-curvature="0" />
    <path
       style="fill:none;stroke:#000000;stroke-width:1px;stroke-linecap:butt;stroke-linejoin:miter;stroke-opacity:1"
       d="M 558.72282,421.0244 C 454.6771,419.0041 454.6771,419.0041 454.6771,419.0041"
       id="path3947-6"
       inkscape:connector-curvature="0" />
    <path
       style="fill:none;stroke:#000000;stroke-width:1px;stroke-linecap:butt;stroke-linejoin:miter;stroke-opacity:1"
       d="m 574.88527,432.13608 c 0,60.60917 0,60.60917 0,60.60917"
       id="path3951-7"
       inkscape:connector-curvature="0" />
    <path
       style="fill:none;stroke:#000000;stroke-width:1px;stroke-linecap:butt;stroke-linejoin:miter;stroke-opacity:1"
       d="M 456.69741,498.80616 C 565.79389,428.09547 565.79389,428.09547 565.79389,428.09547"
       id="path3953-8"
       inkscape:connector-curvature="0" />
    <flowRoot
       xml:space="preserve"
       id="flowRoot3755-3-3-1"
       style="font-size:40px;font-style:normal;font-weight:normal;line-height:125%;letter-spacing:0px;word-spacing:0px;fill:#000000;fill-opacity:1;stroke:none;font-family:Sans"
       transform="matrix(0.68002367,0,0,0.74018849,502.11403,214.19948)"><flowRegion
         id="flowRegion3757-8-4-08"><rect
           id="rect3759-1-1-2"
           width="89.90358"
           height="78.286819"
           x="66.670067"
           y="209.38988" /></flowRegion><flowPara
         id="flowPara3761-2-6-6">0</flowPara></flowRoot>    <flowRoot
       xml:space="preserve"
       id="flowRoot3755-3-3-8-4-3"
       style="font-size:40px;font-style:normal;font-weight:normal;line-height:125%;letter-spacing:0px;word-spacing:0px;fill:#000000;fill-opacity:1;stroke:none;font-family:Sans"
       transform="matrix(0.68002367,0,0,0.74018849,454.11403,288.19947)"><flowRegion
         id="flowRegion3757-8-4-0-5-9"><rect
           id="rect3759-1-1-4-9-8"
           width="89.90358"
           height="78.286819"
           x="66.670067"
           y="209.38988" /></flowRegion><flowPara
         id="flowPara3761-2-6-3-7-7">0</flowPara></flowRoot>    <flowRoot
       xml:space="preserve"
       id="flowRoot3755-5-1-6"
       style="font-size:40px;font-style:normal;font-weight:normal;line-height:125%;letter-spacing:0px;word-spacing:0px;fill:#000000;fill-opacity:1;stroke:none;font-family:Sans"
       transform="matrix(0.68002367,0,0,0.74018849,537.57141,305.83068)"><flowRegion
         id="flowRegion3757-5-9-6"><rect
           id="rect3759-00-1-2"
           width="89.90358"
           height="78.286819"
           x="66.670067"
           y="209.38988" /></flowRegion><flowPara
         id="flowPara3761-0-6-4">1</flowPara></flowRoot>    <flowRoot
       xml:space="preserve"
       id="flowRoot3755-3-2"
       style="font-size:40px;font-style:normal;font-weight:normal;line-height:125%;letter-spacing:0px;word-spacing:0px;fill:#000000;fill-opacity:1;stroke:none;font-family:Sans"
       transform="matrix(0.68002367,0,0,0.74018849,126.43698,247.02186)"><flowRegion
         id="flowRegion3757-8-7"><rect
           id="rect3759-1-6"
           width="89.90358"
           height="78.286819"
           x="66.670067"
           y="209.38988" /></flowRegion><flowPara
         id="flowPara3761-2-6">0</flowPara></flowRoot>    <flowRoot
       xml:space="preserve"
       id="flowRoot3755-3-2-8"
       style="font-size:40px;font-style:normal;font-weight:normal;line-height:125%;letter-spacing:0px;word-spacing:0px;fill:#000000;fill-opacity:1;stroke:none;font-family:Sans"
       transform="matrix(0.68002367,0,0,0.74018849,468.43698,249.02186)"><flowRegion
         id="flowRegion3757-8-7-4"><rect
           id="rect3759-1-6-5"
           width="89.90358"
           height="78.286819"
           x="66.670067"
           y="209.38988" /></flowRegion><flowPara
         id="flowPara3761-2-6-4">0</flowPara></flowRoot>  </g>
</svg>
